<svg width="18" height="18" viewBox="0 0 18 18" fill="none" xmlns="http://www.w3.org/2000/svg">
<path fill-rule="evenodd" clip-rule="evenodd" d="M3.59584 5.29193C3.59584 4.35518 4.35559 3.59543 5.29159 3.59543H6.06334C6.51034 3.59543 6.94009 3.41843 7.25809 3.10268L7.79734 2.56268C8.45809 1.89893 9.53209 1.89593 10.1958 2.55668L10.2026 2.56268L10.7426 3.10268C11.0598 3.41843 11.4896 3.59543 11.9373 3.59543H12.7083C13.6451 3.59543 14.4048 4.35518 14.4048 5.29193V6.06218C14.4048 6.51068 14.5818 6.93968 14.8976 7.25768L15.4376 7.79768C16.1013 8.45843 16.1051 9.53168 15.4443 10.1962L15.4376 10.2029L14.8976 10.7429C14.5818 11.0594 14.4048 11.4899 14.4048 11.9369V12.7087C14.4048 13.6454 13.6451 14.4044 12.7083 14.4044H11.9373C11.4896 14.4044 11.0598 14.5822 10.7426 14.8979L10.2026 15.4372C9.54259 16.1017 8.46859 16.1047 7.80409 15.4439C7.80184 15.4417 7.79959 15.4394 7.79734 15.4372L7.25809 14.8979C6.94009 14.5822 6.51034 14.4044 6.06334 14.4044H5.29159C4.35559 14.4044 3.59584 13.6454 3.59584 12.7087V11.9369C3.59584 11.4899 3.41809 11.0594 3.10234 10.7429L2.56309 10.2029C1.89859 9.54218 1.89559 8.46818 2.55634 7.80443L2.56309 7.79768L3.10234 7.25768C3.41809 6.93968 3.59584 6.51068 3.59584 6.06218V5.29193Z" stroke="#373737" stroke-linecap="round" stroke-linejoin="round"/>
<path d="M7.07251 10.9273L10.9275 7.07227" stroke="#373737" stroke-linecap="round" stroke-linejoin="round"/>
<path d="M10.925 11.4918C10.775 11.4918 10.6325 11.4318 10.5275 11.3268C10.475 11.2743 10.4375 11.2068 10.4075 11.1393C10.3775 11.0718 10.3625 11.005 10.3625 10.9293C10.3625 10.8543 10.3775 10.7793 10.4075 10.7118C10.4375 10.6443 10.475 10.5843 10.5275 10.5318C10.7375 10.3218 11.1125 10.3218 11.3225 10.5318C11.375 10.5843 11.42 10.6443 11.45 10.7118C11.4725 10.7793 11.4875 10.8543 11.4875 10.9293C11.4875 11.005 11.4725 11.0718 11.45 11.1393C11.42 11.2068 11.375 11.2743 11.3225 11.3268C11.2175 11.4318 11.075 11.4918 10.925 11.4918Z" fill="#373737"/>
<path d="M7.07007 7.63711C6.99507 7.63711 6.92757 7.62136 6.86007 7.59136C6.79257 7.56136 6.72507 7.52461 6.67257 7.47211C6.62007 7.41211 6.58257 7.35211 6.55257 7.28461C6.52257 7.21636 6.50757 7.14961 6.50757 7.07461C6.50757 6.99886 6.52257 6.92461 6.55257 6.85711C6.58257 6.78961 6.62007 6.72211 6.67257 6.67711C6.89007 6.46636 7.25757 6.46636 7.46757 6.67711C7.57257 6.78136 7.63257 6.92461 7.63257 7.07461C7.63257 7.14961 7.62507 7.21636 7.59507 7.28461C7.56507 7.35211 7.52007 7.41211 7.46757 7.47211C7.41507 7.52461 7.35507 7.56136 7.28757 7.59136C7.22007 7.62136 7.14507 7.63711 7.07007 7.63711Z" fill="#373737"/>
</svg>
