<svg width="18" height="18" viewBox="0 0 18 18" fill="none" xmlns="http://www.w3.org/2000/svg">
<path fill-rule="evenodd" clip-rule="evenodd" d="M3.17944 7.7934C3.19025 4.61296 5.77726 2.04346 8.9577 2.05423C12.1381 2.06507 14.7076 4.65209 14.6969 7.83253V7.89774C14.6577 9.96514 13.5034 11.876 12.0881 13.3695C11.2788 14.21 10.3749 14.954 9.39466 15.5869C9.13254 15.8136 8.74374 15.8136 8.48162 15.5869C7.02024 14.6357 5.73764 13.4348 4.69249 12.039C3.76096 10.822 3.23207 9.34472 3.17944 7.81296V7.7934Z" stroke="#373737" stroke-linecap="round" stroke-linejoin="round"/>
<path d="M8.93818 9.7499C9.95751 9.7499 10.7838 8.92357 10.7838 7.90425C10.7838 6.88492 9.95751 6.05859 8.93818 6.05859C7.91886 6.05859 7.09253 6.88492 7.09253 7.90425C7.09253 8.92357 7.91886 9.7499 8.93818 9.7499Z" stroke="#373737" stroke-linecap="round" stroke-linejoin="round"/>
</svg>
