<svg width="16" height="16" viewBox="0 0 16 16" fill="none" xmlns="http://www.w3.org/2000/svg">
<path d="M13.2668 9H2.7335C1.7335 9 1.3335 9.42667 1.3335 10.4867V13.18C1.3335 14.24 1.7335 14.6667 2.7335 14.6667H13.2668C14.2668 14.6667 14.6668 14.24 14.6668 13.18V10.4867C14.6668 9.42667 14.2668 9 13.2668 9Z" stroke="#373737" stroke-linecap="round" stroke-linejoin="round"/>
<path d="M13.2668 1.33325H2.7335C1.7335 1.33325 1.3335 1.75992 1.3335 2.81992V5.51325C1.3335 6.57325 1.7335 6.99992 2.7335 6.99992H13.2668C14.2668 6.99992 14.6668 6.57325 14.6668 5.51325V2.81992C14.6668 1.75992 14.2668 1.33325 13.2668 1.33325Z" stroke="#373737" stroke-linecap="round" stroke-linejoin="round"/>
</svg>
